<svg version="1.1" id="Layer_1" xmlns="http://www.w3.org/2000/svg" xmlns:xlink="http://www.w3.org/1999/xlink" x="0px" y="0px"
    viewBox="0 0 7964.7 2984.7" style="enable-background:new 0 0 7964.7 2984.7;" xml:space="preserve">
<style type="text/css">
	.st0{fill:#FFFFFF;}
</style>
<g id="XMLID_2933_">
	<rect id="XMLID_3008_" y="2673.6" class="st0" width="2198.2" height="37.7"/>
	<rect id="XMLID_3007_" x="5766.5" y="2673.6" class="st0" width="2198.2" height="37.7"/>
	<path id="XMLID_3006_" class="st0" d="M900.4,337.7c0,124.2,99.3,223.5,226,223.5c121.7,0,221-99.3,221-223.5
		c0-124.2-99.3-223.5-221-223.5C999.7,114.2,900.4,213.6,900.4,337.7"/>
	<path id="XMLID_3005_" class="st0" d="M950.1,998.3h-84.4c64.6,99.3,84.4,211.1,84.4,330.3v144V1701
		c-39.7,17.4-79.5,19.9-114.2,19.9c-196.2,0-365-253.3-365-754.9c0-752.4,345.2-871.6,568.7-889c-72-44.7-211.1-59.6-268.2-59.6
		C326.8,17.4,4,392.4,4,941.1c0,561.2,327.8,886.5,812,886.5c218.5,0,384.9-62.1,533.9-151.5v-176.3v-171.3
		c0-124.2,24.8-231,84.4-330.3h-84.4H950.1z"/>
	<path id="XMLID_3002_" class="st0" d="M7322.1,1681.1c-59.6,0-109.3-47.2-109.3-166.4c0-174.1,58.7-264.1,198.7-344.7v354.6
		c0,37.7,6.9,73.6,19.5,106.8C7389.6,1675.3,7354.4,1681.1,7322.1,1681.1 M7808.8,1447.7V993.3c0-399.8-337.7-471.8-469.3-471.8
		c-94.3,0-139,9.9-173.8,27.3c168.9,22.3,245.8,168.9,245.8,365.1v177.6c-416,32.6-620.8,164.2-620.8,423.3
		c0,206.1,171.3,312.9,350.1,312.9c182.1,0,262.7-54.2,327.1-127.3c55.3,77.3,145.5,127.3,244.1,127.3
		c119.2,0,178.8-32.3,230.9-94.4C7848.5,1693.6,7808.8,1599.2,7808.8,1447.7"/>
	<path id="XMLID_3001_" class="st0" d="M1789.4,1008.2c121.7,0,221-99.3,221-223.5c0-124.2-99.3-223.5-221-223.5
		c-126.6,0-226,99.3-226,223.5C1563.4,908.9,1662.8,1008.2,1789.4,1008.2"/>
	<path id="XMLID_3000_" class="st0" d="M7053.9,1008.2c121.7,0,221-99.3,221-223.5c0-124.2-99.3-223.5-221-223.5
		c-126.6,0-226,99.3-226,223.5C6827.9,908.9,6927.3,1008.2,7053.9,1008.2"/>
	<path id="XMLID_2999_" class="st0" d="M6440.5,447c121.7,0,221-99.3,221-223.5C6661.5,99.3,6559.7,0,6438,0
		c-126.6,0-223.5,99.3-223.5,223.5C6214.5,347.7,6313.9,447,6440.5,447"/>
	<path id="XMLID_2975_" class="st0" d="M4627.8,1087.7h-221c0.7-376.7,42.8-479.3,116.7-479.3c74.5,0,109.3,104.3,109.3,360.1
		C4632.7,1003.2,4632.7,1033,4627.8,1087.7 M4523.5,521.5c-295.5,0-528.9,196.2-528.9,658.1c0,402.3,258.2,648.1,553.8,648.1
		c305.4,0,439.5-144,471.8-427.1l-22.4-7.4c-91.9,121.7-181.3,146.5-298,146.5c-149.8,0-285.5-94.1-292.7-360.1h623
		C5030,695.3,4828.9,521.5,4523.5,521.5"/>
	<path id="XMLID_2970_" class="st0" d="M6726.1,546.3h-553.8c69.5,99.3,84.4,206.1,84.4,330.3v596c0,124.2-12.4,230.9-59.6,330.3
		h504.1c-49.7-99.3-59.6-211.1-59.6-330.3v-596C6641.7,757.4,6669,645.6,6726.1,546.3"/>
	<path id="XMLID_2943_" class="st0" d="M2057.6,1681.1c-59.6,0-109.3-47.2-109.3-166.4c0-174.1,58.7-264.1,198.7-344.7v354.6
		c0,37.7,6.9,73.6,19.5,106.8C2125.1,1675.3,2089.9,1681.1,2057.6,1681.1 M2544.3,1447.7V993.3c0-399.8-337.7-471.8-469.3-471.8
		c-94.3,0-139,9.9-173.8,27.3C2070,571.1,2147,717.6,2147,913.8v177.6c-416,32.6-620.8,164.2-620.8,423.3
		c0,206.1,171.3,312.9,350.1,312.9c182.1,0,262.7-54.2,327.1-127.3c55.3,77.3,145.5,127.3,244.1,127.3
		c119.2,0,178.8-32.3,230.9-94.4C2584.1,1693.6,2544.3,1599.2,2544.3,1447.7"/>
	<path id="XMLID_2942_" class="st0" d="M5921.5,561.2c-126.6,0-226,99.3-226,223.5c0,124.2,99.3,223.5,226,223.5
		c121.7,0,221-99.3,221-223.5C6142.5,660.5,6043.2,561.2,5921.5,561.2"/>
	<path id="XMLID_2941_" class="st0" d="M5683.1,546.3h-553.8c64.5,99.3,84.4,211.1,84.4,330.3v596c0,119.2-9.9,230.9-59.6,330.3
		h504.1c-47.2-99.3-59.6-206.1-59.6-330.3v-596C5598.7,752.4,5613.6,645.6,5683.1,546.3"/>
	<path id="XMLID_2938_" class="st0" d="M3165.1,1447.7V1187V993.3V432.1c0-273.2-144-432.1-342.7-432.1
		c-101.8,0-161.4,24.8-213.6,69.5c84.4,52.1,158.9,178.8,158.9,384.9v459.4v193.7v417.2c0,168.9,139.1,303,300.5,303
		c119.2,0,178.8-32.3,230.9-94.4C3204.9,1693.6,3165.1,1599.2,3165.1,1447.7"/>
	<path id="XMLID_2935_" class="st0" d="M3798.4,1447.7V1187V993.3V432.1c0-273.2-144-432.1-342.7-432.1
		c-101.8,0-161.4,24.8-213.6,69.5c84.4,52.1,158.9,178.8,158.9,384.9v459.4v193.7v417.2c0,168.9,139.1,303,300.5,303
		c119.2,0,178.8-32.3,230.9-94.4C3838.1,1693.6,3798.4,1599.2,3798.4,1447.7"/>
</g>
</svg>